<?xml version="1.0" encoding="utf-8"?>
<!-- Generator: Adobe Illustrator 17.1.0, SVG Export Plug-In . SVG Version: 6.00 Build 0)  -->
<!DOCTYPE svg PUBLIC "-//W3C//DTD SVG 1.1//EN" "http://www.w3.org/Graphics/SVG/1.1/DTD/svg11.dtd">
<svg version="1.1" id="Layer_1" xmlns="http://www.w3.org/2000/svg" xmlns:xlink="http://www.w3.org/1999/xlink" x="0px" y="0px"
	 viewBox="0 0 250 250" enable-background="new 0 0 250 250" xml:space="preserve">
<path fill="#663C00" stroke="#000000" stroke-miterlimit="10" d="M142.7,137c0,0,32.2,20.7,50.1,72.4c0,0-2.6-18.4,6.2-15.9
	c0,0-44.5-51.6-47.8-68.6"/>
<polygon fill="#006600" stroke="#000000" stroke-miterlimit="10" points="168.6,152.9 170,148.5 183.3,156.5 184.1,153.6 195.2,157 
	194.2,153.1 213.9,151.2 214.1,150.8 199.6,137.4 202.7,134.9 191.8,131 192.9,128.1 177.4,126.5 179,122.2 164.5,123.5 
	160.8,121.6 164.8,119.6 177.2,115.1 172.2,111.6 187.8,95.6 181,93.3 194,73.2 189.6,71.8 195.5,54.9 189.4,56.2 187.4,25.9 
	186.9,25.5 165.6,47.2 161.8,42.2 155.2,58.8 150.9,57.1 147.7,80.7 141,78 142.4,100.4 138.6,100 136.3,99.7 135,80 127.5,84 
	125.3,63.4 118.2,70.3 100.9,42.3 96.3,46.8 78.5,29.5 76.4,37.7 36.8,21.8 36.3,22.5 50.5,61.5 41.8,63.1 58.8,81.1 53.9,85.3 
	81.8,103.5 74.3,110 93.4,113.7 88.7,120.7 112.4,123.1 117.2,126 113,129.3 90.6,127.5 93.2,134.2 69.5,137.1 71.2,141.4 
	54.5,147.7 59.4,151.5 37.4,172.5 37.7,173 68,175.5 66.6,181.6 83.6,176 85,180.4 105.2,167.8 107.4,174.6 123.7,159.2 
	127.1,164.3 131.8,152 133.3,147.8 135.7,151.8 134.1,166.2 138.5,164.7 139.9,180.2 142.7,179.2 146.5,190.1 149.1,187 
	162.2,201.8 162.6,201.6 164.8,181.9 168.7,183 165.5,171.8 168.4,171 160.6,157.6 165.1,156.3 151.7,138.4 158.8,143.3 "/>
</svg>
